<svg xmlns="http://www.w3.org/2000/svg" viewBox="0 0 64.16 51.26"><defs><style>.cls-1,.cls-2{fill:none;stroke:#3f78bc;stroke-linecap:round;stroke-width:3px;}.cls-1{stroke-linejoin:round;}.cls-2{stroke-miterlimit:10;}</style></defs><title>Icon-10</title><g id="Layer_2" data-name="Layer 2"><g id="Layer_1-2" data-name="Layer 1"><g id="Icon-10"><line class="cls-1" x1="11.93" y1="16.71" x2="31.93" y2="24.04"/><polyline class="cls-2" points="51.93 28.13 51.93 42.33 31.93 49.66 11.93 42.33 11.93 28.11"/><line class="cls-1" x1="51.93" y1="16.71" x2="31.93" y2="24.04"/><polyline class="cls-1" points="32.19 9.17 21.5 1.5 1.5 8.83 12.19 16.5"/><polyline class="cls-1" points="31.97 9.17 42.66 1.5 62.66 8.83 51.97 16.5"/><polyline class="cls-1" points="32.44 24.08 42.66 31.45 62.66 24.12 51.97 16.46"/><polyline class="cls-1" points="51.93 16.67 31.93 9.34 11.93 16.67"/><path class="cls-1" d="M31.93,49.66s-.09-25.37-.2-25.48L21.5,31.45l-20-7.33,10.69-7.66"/></g></g></g></svg>