<svg xmlns="http://www.w3.org/2000/svg" viewBox="0 0 38.87 43.05"><defs><style>.cls-1{fill:none;stroke:#3f78bc;stroke-linecap:round;stroke-miterlimit:10;stroke-width:3px;}</style></defs><title>Icon-8</title><g id="Layer_2" data-name="Layer 2"><g id="Layer_1-2" data-name="Layer 1"><g id="Icon-8"><path class="cls-1" d="M9.7,41.55c1.9-4.1,4.84-10.36,6.75-13.9a1,1,0,0,0-.66-1.59H2.55c-1.6,0-.89-1.4-.89-1.4l8-23.14H29.5L22.32,16c-.95,1.49.49,1.59.49,1.59,4.24,0,8.14-.13,12.38-.13a5.74,5.74,0,0,1,1.4.13,1.48,1.48,0,0,1,.74.8,1.29,1.29,0,0,1-.3,1.08c-.9.95-1.86,1.84-2.81,2.74-6.09,5.78-16,14.52-21.57,19.38Z"/></g></g></g></svg>