<svg xmlns="http://www.w3.org/2000/svg" viewBox="0 0 50.73 58.29"><defs><style>.cls-1,.cls-2{fill:none;stroke:#3f78bc;stroke-linejoin:round;stroke-width:3px;}.cls-2{stroke-linecap:round;}.cls-3{fill:#3f78bc;}</style></defs><title>Icon-9</title><g id="Layer_2" data-name="Layer 2"><g id="Layer_1-2" data-name="Layer 1"><g id="Icon-9"><path class="cls-1" d="M25.09,27.75c0,7.42,0,16,0,23.42a5.19,5.19,0,0,1-3.19,5.2,5.09,5.09,0,0,1-7-3.43"/><path class="cls-2" d="M24.84,11.64h.6A27.43,27.43,0,0,1,37.57,14.9,25.58,25.58,0,0,1,48.48,28.71c.08.22.14.45.26.87-3.2-2.4-6.05-2.16-8.66,1-1.29-1.5-2.75-2.66-4.64-2.67S32.1,29,30.82,30.6A9.61,9.61,0,0,0,27,27.9a4.62,4.62,0,0,0-1.82-.26h0a4.55,4.55,0,0,0-1.81.26,9.48,9.48,0,0,0-3.86,2.7c-1.29-1.58-2.73-2.71-4.62-2.7s-3.36,1.17-4.65,2.67c-2.6-3.15-5.46-3.39-8.66-1,.12-.42.18-.65.26-.87A25.56,25.56,0,0,1,12.68,14.9,27.35,27.35,0,0,1,24.8,11.63h.6"/><rect class="cls-3" x="23.59" y="8.65" width="2.99" height="3.1"/><path class="cls-3" d="M32.14,3.08a4.33,4.33,0,0,1,.28,2.12,1.08,1.08,0,0,1-1.26.86,1.08,1.08,0,0,1-.51-1.45,4.33,4.33,0,0,1,1.48-1.53"/><path class="cls-3" d="M41.07,0a4.34,4.34,0,0,1,.29,2.11A1.08,1.08,0,0,1,40.09,3a1.06,1.06,0,0,1-.5-1.44A4.18,4.18,0,0,1,41.07,0"/><path class="cls-3" d="M42,7.23a4.34,4.34,0,0,1,.29,2.11A1.08,1.08,0,0,1,41,10.2a1.06,1.06,0,0,1-.5-1.44A4.18,4.18,0,0,1,42,7.23"/><path class="cls-3" d="M50.4,4.75a4.18,4.18,0,0,1,.28,2.11,1.07,1.07,0,0,1-1.26.86,1.08,1.08,0,0,1-.51-1.44A4.32,4.32,0,0,1,50.4,4.75"/><path class="cls-3" d="M49.45,13a4.17,4.17,0,0,1,.28,2.11A1,1,0,1,1,48,14.49,4.35,4.35,0,0,1,49.44,13"/></g></g></g></svg>