<svg xmlns="http://www.w3.org/2000/svg" viewBox="0 0 53.61 46.36"><defs><style>.cls-1{fill:#477abd;}.cls-2{fill:#3f78bc;}.cls-3{fill:none;stroke:#3f78bc;stroke-linecap:round;stroke-miterlimit:10;stroke-width:3px;}</style></defs><title>Icon-6</title><g id="Layer_2" data-name="Layer 2"><g id="Layer_1-2" data-name="Layer 1"><g id="Icon-6"><path class="cls-1" d="M26.79,38.88A2.8,2.8,0,0,1,24,36.1a2.8,2.8,0,0,1,2.78-2.81A2.8,2.8,0,0,1,29.6,36.1a2.8,2.8,0,0,1-2.81,2.78"/><path class="cls-2" d="M26.85,30.53h0a2.8,2.8,0,0,1-2.8-2.8V16.37a2.8,2.8,0,0,1,5.59,0V27.73a2.79,2.79,0,0,1-2.79,2.8"/><polygon class="cls-3" points="49.95 44.86 51.87 41.52 28.76 1.5 24.91 1.5 1.73 41.49 3.65 44.84 49.95 44.86"/></g></g></g></svg>