<svg xmlns="http://www.w3.org/2000/svg" viewBox="0 0 50.85 50.85"><defs><style>.cls-1{fill:none;stroke:#3f78bc;stroke-linejoin:round;stroke-width:3px;}</style></defs><title>icon-3</title><g id="Layer_2" data-name="Layer 2"><g id="Layer_1-2" data-name="Layer 1"><g id="icon-3"><path class="cls-1" d="M49.35,25.43A23.93,23.93,0,1,1,25.43,1.5,23.92,23.92,0,0,1,49.35,25.43Z"/><path class="cls-1" d="M49.35,25.43A23.93,23.93,0,1,1,25.43,1.5,23.92,23.92,0,0,1,49.35,25.43Z"/><path class="cls-1" d="M39.11,25.43c0,13.21-6.12,23.92-13.68,23.92S11.74,38.64,11.74,25.43,17.87,1.5,25.43,1.5,39.11,12.21,39.11,25.43Z"/><line class="cls-1" x1="25.43" y1="1.5" x2="25.43" y2="49.35"/><path class="cls-1" d="M49.35,25.43A23.93,23.93,0,1,1,25.43,1.5,23.92,23.92,0,0,1,49.35,25.43Z"/><path class="cls-1" d="M42.32,42.37a34.73,34.73,0,0,0-16.89-4,34.74,34.74,0,0,0-16.9,4"/><path class="cls-1" d="M8.53,8.48a34.74,34.74,0,0,0,16.9,4,34.72,34.72,0,0,0,16.89-4"/><line class="cls-1" x1="25.43" y1="1.5" x2="25.43" y2="49.35"/><line class="cls-1" x1="49.35" y1="25.43" x2="1.5" y2="25.43"/></g></g></g></svg>