<svg xmlns="http://www.w3.org/2000/svg" viewBox="0 0 49.3 35.59"><defs><style>.cls-1{fill:none;stroke:#3f78bc;stroke-linecap:round;stroke-linejoin:round;stroke-width:3px;}.cls-2{fill:#3f78bc;}</style></defs><title>Icon-4</title><g id="Layer_2" data-name="Layer 2"><g id="Layer_1-2" data-name="Layer 1"><g id="Icon-4"><path class="cls-1" d="M1.5,22.51V13.07a11.57,11.57,0,0,1,23.14,0v9.44a11.57,11.57,0,1,1-23.14,0Z"/><path class="cls-2" d="M6.4,12.9a4.9,4.9,0,1,1-4.9,4.89A4.89,4.89,0,0,1,6.4,12.9"/><path class="cls-1" d="M24.65,22.51V13.07a11.58,11.58,0,0,1,23.15,0v9.44a11.58,11.58,0,1,1-23.15,0Z"/><path class="cls-2" d="M29.55,12.9a4.9,4.9,0,1,1-4.9,4.89,4.9,4.9,0,0,1,4.9-4.89"/></g></g></g></svg>