<svg xmlns="http://www.w3.org/2000/svg" viewBox="0 0 48.66 37.89"><defs><style>.cls-1{fill:none;stroke:#3f78bc;stroke-miterlimit:10;stroke-width:3px;}</style></defs><title>Icon-1</title><g id="Layer_2" data-name="Layer 2"><g id="Layer_1-2" data-name="Layer 1"><g id="Icon-1"><path id="no" class="cls-1" d="M30.87,30.85c1.16,5.07-3.62,5.4-3.62,5.4a109.59,109.59,0,0,1-11.09,0c-3.81-.17-7.87-3.08-11-4.83H1.5V14.62H5.06c1.29-.63,2.3-3,3-4,1.69-2.46,6.45-4.31,6.45-4.31s4.3-1.61,6.46-2.71S24.83.89,26.36,1.74s2.72,2.31,1.18,4.57c-1.05,1.55-5,3.36-7.35,4.35a.37.37,0,0,0,.15.72H43.68s3.48.1,3.48,3-3.31,3.23-3.31,3.23H25.6"/><path class="cls-1" d="M25.6,24.33h7.88s2.21-1.16,2.21-3.17a11.78,11.78,0,0,0-.41-3.28"/><path class="cls-1" d="M25.6,30.85h5.27s2.82-1.46,2.79-3.61a8,8,0,0,0-.43-3"/></g></g></g></svg>