<svg xmlns="http://www.w3.org/2000/svg" viewBox="0 0 39.64 49.62"><defs><style>.cls-1,.cls-2{fill:none;stroke:#3f78bc;stroke-width:3px;}.cls-1{stroke-linecap:round;stroke-linejoin:round;}.cls-2{stroke-miterlimit:10;}</style></defs><title>Icon-2</title><g id="Layer_2" data-name="Layer 2"><g id="Layer_1-2" data-name="Layer 1"><g id="Icon-2"><path class="cls-1" d="M34.71,41.69a15.21,15.21,0,0,0,3.38-11.18,12.88,12.88,0,0,0-3-7.6c-.59-.72-1-.63-1.45.18a5.75,5.75,0,0,1-1.14,1.6,2.39,2.39,0,0,1-4-1.36,10,10,0,0,1,.28-4,18.14,18.14,0,0,0,.31-7.15,12.32,12.32,0,0,0-4.37-7.77,13.6,13.6,0,0,0-9.12-2.94.66.66,0,0,0-.56,1,3.71,3.71,0,0,0,.51.63,7.25,7.25,0,0,1,1.8,6.68,9.26,9.26,0,0,1-2.62,4.36C12,16.92,9.91,20,9.76,24l-.16.08c-.2-.48-.45-.94-.6-1.43a13.44,13.44,0,0,1-.44-4.19c0-.9.11-1.79.1-2.68a.61.61,0,0,0-.39-.63,1.12,1.12,0,0,0-.91.32A18.5,18.5,0,0,0,2,33.28c1.58,7.57,8,14.84,17.85,14.84C25.89,48.12,31.84,45.14,34.71,41.69Z"/><path class="cls-2" d="M19.83,48.12a8.36,8.36,0,0,1-6.75-3.4c-1.34-1.9-2.24-3.86-1.8-6.13A12,12,0,0,1,12,35.9a30.24,30.24,0,0,1,2.4,1.84,1.56,1.56,0,0,0,1.9.26.77.77,0,0,0,.3-.94c-.11-.36-.22-.72-.36-1.08a7.17,7.17,0,0,1-.57-3.19c.19-7.39,5.92-8.38,5.92-8.38S21.43,30,24,33a32.06,32.06,0,0,1,2.74,3.53,7.22,7.22,0,0,1-.31,8.54A8,8,0,0,1,19.83,48.12Z"/></g></g></g></svg>